<svg width="64" height="64" viewBox="0 0 64 64" fill="none" xmlns="http://www.w3.org/2000/svg">
<path d="M56.3719 63.9999H19.2588C18.5602 63.9999 17.873 63.823 17.2612 63.4857C13.8788 61.6212 14.6621 56.4426 18.3182 55.1978C28.8833 51.6008 33.1654 46.2829 35.6558 35.7909C39.744 22.8639 45.1767 16.6939 55.3309 13.4842C59.7867 12.0757 64 15.7674 64 20.4405V56.3718C64 60.5847 60.5848 63.9999 56.3719 63.9999Z" fill="url(#paint0_linear_93_282)"/>
<path d="M7.62809 -9.91821e-05L44.7412 -9.91821e-05C45.4398 -9.91821e-05 46.127 0.176765 46.7388 0.514008C50.1212 2.37854 49.3379 7.55718 45.6818 8.80195C35.1167 12.3989 30.8346 17.7169 28.3442 28.2088C24.256 41.1358 18.8233 47.3059 8.66913 50.5156C4.21328 51.924 1.52588e-05 48.2324 1.52588e-05 43.5592L1.52588e-05 7.62798C1.52588e-05 3.4151 3.41522 -9.91821e-05 7.62809 -9.91821e-05Z" fill="url(#paint1_linear_93_282)"/>
<defs>
<linearGradient id="paint0_linear_93_282" x1="30.5876" y1="72.6223" x2="61.9071" y2="10.1454" gradientUnits="userSpaceOnUse">
<stop stop-color="#25E7E7"/>
<stop offset="1" stop-color="#0A3A97"/>
</linearGradient>
<linearGradient id="paint1_linear_93_282" x1="33.4124" y1="-8.62253" x2="2.09294" y2="53.8543" gradientUnits="userSpaceOnUse">
<stop stop-color="#25E7E7"/>
<stop offset="1" stop-color="#0A3A97"/>
</linearGradient>
</defs>
</svg>
